<svg width="920" height="1200" viewBox="0 0 920 1200" fill="none" xmlns="http://www.w3.org/2000/svg">
  <defs>
    <linearGradient id="bg" x1="0" y1="0" x2="920" y2="1200" gradientUnits="userSpaceOnUse">
      <stop stop-color="#E0F2FE"/>
      <stop offset="1" stop-color="#DBEAFE"/>
    </linearGradient>
    <linearGradient id="wave" x1="0" y1="0" x2="920" y2="0" gradientUnits="userSpaceOnUse">
      <stop stop-color="#22D3EE"/>
      <stop offset="1" stop-color="#3B82F6"/>
    </linearGradient>
  </defs>

  <rect width="920" height="1200" rx="26" fill="url(#bg)"/>

  <circle cx="730" cy="200" r="130" fill="#BFDBFE"/>
  <circle cx="240" cy="260" r="90" fill="#BAE6FD"/>

  <rect x="60" y="420" width="800" height="690" rx="28" fill="#F8FAFC" stroke="#CBD5E1" stroke-width="4"/>

  <rect x="110" y="485" width="700" height="18" rx="9" fill="url(#wave)"/>
  <rect x="110" y="560" width="700" height="18" rx="9" fill="url(#wave)" opacity="0.92"/>
  <rect x="110" y="635" width="700" height="18" rx="9" fill="url(#wave)" opacity="0.84"/>
  <rect x="110" y="710" width="700" height="18" rx="9" fill="url(#wave)" opacity="0.76"/>
  <rect x="110" y="785" width="700" height="18" rx="9" fill="url(#wave)" opacity="0.68"/>
  <rect x="110" y="860" width="700" height="18" rx="9" fill="url(#wave)" opacity="0.60"/>
  <rect x="110" y="935" width="700" height="18" rx="9" fill="url(#wave)" opacity="0.52"/>

  <circle cx="430" cy="570" r="38" fill="#0F172A"/>
  <path d="M356 648C390 612 462 608 528 636" stroke="#0F172A" stroke-width="24" stroke-linecap="round"/>
  <path d="M348 712C412 680 502 682 566 714" stroke="#0F172A" stroke-width="20" stroke-linecap="round"/>
  <path d="M334 774C428 744 512 744 604 772" stroke="#0F172A" stroke-width="16" stroke-linecap="round" opacity="0.9"/>

  <rect x="128" y="1020" width="664" height="44" rx="12" fill="#E2E8F0"/>
  <rect x="154" y="1032" width="240" height="20" rx="10" fill="#94A3B8"/>
  <rect x="420" y="1032" width="140" height="20" rx="10" fill="#CBD5E1"/>
  <rect x="574" y="1032" width="190" height="20" rx="10" fill="#94A3B8"/>
</svg>
